<?xml version="1.0" standalone="no"?>
<!DOCTYPE svg PUBLIC "-//W3C//DTD SVG 1.1//EN" "http://www.w3.org/Graphics/SVG/1.1/DTD/svg11.dtd" >
<svg xmlns="http://www.w3.org/2000/svg" xmlns:xlink="http://www.w3.org/1999/xlink" version="1.1">
<metadata>
Created by FontForge 20170924 at Tue Aug 29 10:39:48 2006
 By www-data
Copyrighted (c) 1981, 1997 by and the property of Linotype-Hell AG and/or its subsidiaries. All Rights Reserved. All Cyrillic characters designed by DoubleAlex. Helvetica is a registered Trademark of Linotype-Hell AG and/or its subsidiaries.
</metadata>
<defs>
<font id="HelveticaNeueCyr-Medium" horiz-adv-x="556" >
  <font-face 
    font-family="HelveticaNeueCyr"
    font-weight="550"
    font-stretch="normal"
    units-per-em="1000"
    panose-1="2 0 6 3 5 0 0 2 0 4"
    ascent="800"
    descent="-200"
    x-height="516"
    cap-height="712"
    bbox="-36 -214 1075 900"
    underline-thickness="50"
    underline-position="-200"
    unicode-range="U+0020-E001"
  />
<missing-glyph horiz-adv-x="1000" 
 />
    <glyph glyph-name=".notdef" horiz-adv-x="1000" 
 />
    <glyph glyph-name=".null" horiz-adv-x="0" 
 />
    <glyph glyph-name="nonmarkingreturn" horiz-adv-x="333" 
 />
    <glyph glyph-name="space" unicode=" " horiz-adv-x="278" 
 />
    <glyph glyph-name="exclam" unicode="!" horiz-adv-x="278" 
d="M200 712v-204l-32 -311h-59l-31 310v205h122zM204 127v-127h-130v127h130z" />
    <glyph glyph-name="quotedbl" unicode="&#x22;" horiz-adv-x="444" 
d="M168 405h-65l-18 291h101zM342 405h-66l-17 291h100z" />
    <glyph glyph-name="numbersign" unicode="#" 
d="M163 0h-94l36 195h-90v80h104l27 145h-89v80h104l37 196h94l-36 -196h110l36 196h94l-36 -196h89v-80h-104l-27 -145h89v-80h-104l-36 -195h-94l36 195h-110zM324 275l27 145h-110l-27 -145h110z" />
    <glyph glyph-name="dollar" unicode="$" 
d="M301 788v-72q100 -2 158.5 -52t58.5 -133v-15h-108v7q0 52 -27.5 76.5t-81.5 30.5v-220q237 -39 237 -212q0 -94 -65.5 -153t-171.5 -59v-86h-50v86q-105 0 -171.5 58t-66.5 165v9h114q-1 -5 -1 -11q0 -123 125 -134v244q-96 14 -158.5 61.5t-62.5 135.5q0 94 61.5 143.5
t159.5 58.5v72h50zM251 421v208q-53 -4 -83 -31.5t-30 -72.5q0 -47 29.5 -69t83.5 -35zM301 306v-234q56 2 90 35t34 85q0 89 -124 114z" />
    <glyph glyph-name="percent" unicode="%" horiz-adv-x="1000" 
d="M731 725l-394 -756h-78l396 756h76zM253 708q79 0 120 -48.5t41 -141.5q0 -100 -41.5 -152t-121.5 -52t-122 50.5t-42 147.5q0 94 43.5 145t122.5 51zM251 643q-76 0 -76 -136q0 -129 75 -129q76 0 76 139q0 126 -75 126zM757 380q79 0 120 -48.5t41 -141.5
q0 -100 -41.5 -152t-121.5 -52t-122 50.5t-42 147.5q0 94 43.5 145t122.5 51zM755 315q-76 0 -76 -136q0 -129 75 -129q76 0 76 139q0 126 -75 126z" />
    <glyph glyph-name="ampersand" unicode="&#x26;" horiz-adv-x="648" 
d="M580 340q-9 -106 -58 -175l140 -165h-140l-66 80q-80 -95 -200 -95q-95 0 -159 55.5t-64 150.5q0 70 45 124.5t117 87.5q-71 87 -71 157q0 69 49.5 113.5t126.5 44.5q75 0 123.5 -44.5t48.5 -113.5q0 -115 -126 -182l109 -135q18 38 25 97h100zM289 447q83 49 83 110
q0 33 -20.5 54.5t-51.5 21.5q-32 0 -53 -20t-21 -50q0 -37 59 -111zM254 330q-51 -29 -80 -59.5t-29 -76.5q0 -47 34 -80.5t83 -33.5q75 0 133 77z" />
    <glyph glyph-name="quotesingle" unicode="'" horiz-adv-x="278" 
d="M170 405h-62l-19 291h100z" />
    <glyph glyph-name="parenleft" unicode="(" horiz-adv-x="278" 
d="M285 717q-61 -116 -91 -221.5t-30 -236.5q0 -231 122 -450h-92q-73 119 -108.5 220t-35.5 228q0 254 144 460h91z" />
    <glyph glyph-name="parenright" unicode=")" horiz-adv-x="278" 
d="M227 257q0 -127 -35.5 -228t-108.5 -220h-92q122 219 122 450q0 131 -30 236.5t-91 221.5h91q144 -206 144 -460z" />
    <glyph glyph-name="asterisk" unicode="*" horiz-adv-x="370" 
d="M352 582l-113 -38l69 -94l-53 -40l-71 99l-69 -99l-55 40l69 94l-111 38l22 64l111 -42l-1 118h69l-2 -118l111 42z" />
    <glyph glyph-name="plus" unicode="+" horiz-adv-x="600" 
d="M249 0v210h-207v95h207v210h102v-210h208v-95h-208v-210h-102z" />
    <glyph glyph-name="comma" unicode="," horiz-adv-x="278" 
d="M207 135v-102q0 -78 -30 -125.5t-106 -64.5v60q62 19 65 97h-65v135h136z" />
    <glyph glyph-name="hyphen" unicode="-" horiz-adv-x="389" 
d="M341 328v-106h-293v106h293z" />
    <glyph glyph-name="period" unicode="." horiz-adv-x="278" 
d="M207 135v-135h-136v135h136z" />
    <glyph glyph-name="slash" unicode="/" horiz-adv-x="352" 
d="M370 729l-287 -746h-101l289 746h99z" />
    <glyph glyph-name="zero" unicode="0" 
d="M276 706q244 0 244 -363q0 -175 -61 -266t-179 -91q-244 0 -244 359q0 177 61 269t179 92zM277 610q-30 0 -52 -11.5t-35.5 -35t-21.5 -47t-11.5 -59.5t-4.5 -59.5t-1 -59.5q0 -135 30.5 -196t97.5 -61q26 0 46.5 10.5t33.5 25.5t22 40t13.5 45.5t7 51t3 47t0.5 42.5
q0 34 -0.5 52.5t-3.5 56t-11.5 60.5t-22 48t-36.5 37.5t-54 12.5z" />
    <glyph glyph-name="one" unicode="1" 
d="M377 704v-704h-122v484h-174v84q182 0 204 136h92z" />
    <glyph glyph-name="two" unicode="2" 
d="M501 101v-101h-478q1 47 13 86t27.5 66.5t46 56t55 47t67.5 47.5q3 2 29.5 19.5t32.5 22t27 21t27.5 26.5t18 27t15.5 34.5t4 37.5q0 55 -30.5 86.5t-82.5 31.5q-30 0 -52 -9.5t-34.5 -24.5t-20.5 -38.5t-10.5 -44.5t-3.5 -49h-111v18q0 113 63.5 179.5t171.5 66.5
q102 0 164 -57.5t62 -152.5q0 -38 -12 -72t-25.5 -55t-46.5 -49t-49 -39t-59 -40q-125 -81 -150 -141h341z" />
    <glyph glyph-name="three" unicode="3" 
d="M44 475q3 108 64 170t164 62q97 0 157 -52t60 -136q0 -51 -26.5 -89.5t-71.5 -53.5q59 -15 93 -58.5t34 -106.5q0 -100 -69 -163t-179 -63q-109 0 -176 63t-67 167v15h110q5 -147 136 -147q58 0 92 33.5t34 91.5q0 61 -39 89t-101 28q-19 0 -36 -1v86h10q31 0 53 3.5
t44.5 13t34.5 31t12 53.5q0 46 -29 74t-78 28q-112 0 -117 -138h-109z" />
    <glyph glyph-name="four" unicode="4" 
d="M522 262v-96h-89v-166h-110l-1 166h-297v113l300 427h108v-444h89zM324 262v303l-205 -303h205z" />
    <glyph glyph-name="five" unicode="5" 
d="M477 696v-99h-279l-32 -180q47 50 132 50q97 0 157 -63t60 -166q0 -111 -70 -181t-180 -70q-104 0 -168.5 57.5t-68.5 154.5h113q4 -54 39 -86t88 -32q62 0 96 39.5t34 111.5q0 70 -35 108.5t-97 38.5q-75 0 -117 -63l-100 3l67 377h361z" />
    <glyph glyph-name="six" unicode="6" 
d="M507 522h-110q-18 96 -106 96q-25 0 -46 -10t-35 -23t-25 -37.5t-16.5 -41t-11 -47.5t-6.5 -43t-4 -40q58 86 160 86q97 0 156.5 -64t59.5 -167q0 -107 -66.5 -176t-169.5 -69q-121 0 -186 91t-65 260q0 175 69 273t191 98q89 0 145 -49t66 -137zM284 371
q-56 0 -89 -38.5t-33 -102.5q0 -67 34.5 -108t90.5 -41q55 0 88.5 40t33.5 106q0 65 -34 104.5t-91 39.5z" />
    <glyph glyph-name="seven" unicode="7" 
d="M514 696v-96q-109 -109 -179 -275.5t-76 -324.5h-125q4 142 83 317.5t184 273.5h-364v105h477z" />
    <glyph glyph-name="eight" unicode="8" 
d="M160 377q-47 17 -73.5 55.5t-26.5 90.5q0 82 61.5 134t159.5 52q94 0 154 -51.5t60 -131.5q0 -107 -99 -149q64 -22 96 -62t32 -107q0 -99 -68 -159.5t-179 -60.5q-110 0 -177.5 59t-67.5 155q0 65 33.5 110.5t94.5 64.5zM280 617q-52 0 -82.5 -27.5t-30.5 -73.5t31 -74
t81 -28t80 27.5t30 74.5q0 46 -29.5 73.5t-79.5 27.5zM277 332q-58 0 -94 -34.5t-36 -89.5q0 -60 36 -95t98 -35q60 0 94 33.5t34 93.5q0 58 -36 92.5t-96 34.5z" />
    <glyph glyph-name="nine" unicode="9" 
d="M44 174h110q4 -43 33 -70t77 -27q127 0 138 245q-57 -89 -156 -89q-94 0 -155 64.5t-61 165.5q0 107 67 176.5t171 69.5q57 0 101.5 -21t71.5 -54.5t44.5 -80t24 -92.5t6.5 -97q0 -69 -12.5 -131.5t-40 -120t-80.5 -92t-125 -34.5q-89 0 -149.5 53t-64.5 135zM264 613
q-54 0 -86.5 -40.5t-32.5 -106.5q0 -65 33 -103t88 -38t89 39t34 102q0 67 -34 107t-91 40z" />
    <glyph glyph-name="colon" unicode=":" horiz-adv-x="278" 
d="M207 135v-135h-136v135h136zM207 511v-135h-136v135h136z" />
    <glyph glyph-name="semicolon" unicode=";" horiz-adv-x="278" 
d="M207 511v-135h-136v135h136zM207 135v-102q0 -78 -30 -125.5t-106 -64.5v60q62 19 65 97h-65v135h136z" />
    <glyph glyph-name="less" unicode="&#x3c;" horiz-adv-x="600" 
d="M42 208v100l517 199v-106l-388 -143l388 -143v-108z" />
    <glyph glyph-name="equal" unicode="=" horiz-adv-x="600" 
d="M42 317v96h517v-96h-517zM42 102v96h517v-96h-517z" />
    <glyph glyph-name="greater" unicode="&#x3e;" horiz-adv-x="600" 
d="M559 208l-517 -201v108l388 143l-388 143v106l517 -199v-100z" />
    <glyph glyph-name="question" unicode="?" 
d="M208 0v127h129v-127h-129zM219 197q0 65 13.5 105.5t55.5 79.5q4 4 19.5 17.5t20.5 18.5t17 17.5t16.5 20.5t11 20.5t9 25t2.5 26.5q0 44 -29 72t-75 28q-117 0 -121 -142h-115q5 111 65 175.5t173 64.5q101 0 162.5 -54.5t61.5 -143.5q0 -33 -7 -59t-25 -49t-32 -37
t-45 -40q-50 -43 -60 -62.5t-10 -83.5h-108z" />
    <glyph glyph-name="at" unicode="@" horiz-adv-x="800" 
d="M695 129l28 -38q-78 -57 -150 -82.5t-156 -25.5q-163 0 -275.5 100.5t-112.5 262.5q0 163 116.5 273t286.5 110q149 0 244 -83.5t95 -215.5q0 -105 -62.5 -184t-145.5 -79q-37 0 -60 20t-23 53q0 8 3 22q-50 -95 -139 -95q-61 0 -98.5 42.5t-37.5 110.5q0 97 60.5 169.5
t140.5 72.5q85 0 114 -71l15 55h82l-65 -219q-12 -40 -12 -61q0 -19 11 -29.5t31 -10.5q50 0 91 64.5t41 144.5q0 109 -79 177t-205 68q-150 0 -250 -96t-100 -240q0 -137 94.5 -224.5t242.5 -87.5q143 0 275 97zM493 436q0 29 -18 48t-46 19q-37 0 -67 -34.5t-44.5 -76.5
t-14.5 -77q0 -41 17.5 -65t48.5 -24q36 0 66 40.5t44 88t14 81.5z" />
    <glyph glyph-name="A" unicode="A" horiz-adv-x="667" 
d="M400 713l275 -713h-134l-68 189h-282l-70 -189h-129l275 713h133zM440 283l-106 300l-111 -300h217z" />
    <glyph glyph-name="B" unicode="B" horiz-adv-x="704" 
d="M74 712h325q112 0 171.5 -48.5t59.5 -130.5q0 -51 -28 -91.5t-74 -58.5q62 -15 98 -60t36 -113q0 -94 -62.5 -152t-162.5 -58h-363v712zM196 611v-196h170q72 0 106 22.5t34 75.5q0 60 -35.5 79t-100.5 19h-174zM196 325v-223h187q72 0 113 24t41 87q0 35 -12.5 58.5
t-36 34.5t-48.5 15t-59 4h-185z" />
    <glyph glyph-name="C" unicode="C" horiz-adv-x="722" 
d="M685 271q-10 -131 -93.5 -209.5t-216.5 -78.5q-151 0 -242 102t-91 271q0 102 39 185.5t117 135t183 51.5q113 0 197 -62.5t101 -180.5h-124q-13 64 -60 100.5t-116 36.5q-71 0 -120.5 -40t-70 -98.5t-20.5 -127.5q0 -52 12 -98t36 -84.5t65.5 -61.5t96.5 -23
q159 0 182 182h125z" />
    <glyph glyph-name="D" unicode="D" horiz-adv-x="722" 
d="M75 712h271q74 0 130 -15.5t103 -57.5q105 -94 105 -271q0 -189 -100 -289q-44 -44 -95.5 -61.5t-135.5 -17.5h-278v712zM199 606v-501h147q117 0 165 68t48 189q0 115 -54 179.5t-167 64.5h-139z" />
    <glyph glyph-name="E" unicode="E" horiz-adv-x="630" 
d="M587 712v-105h-389v-189h361v-101h-361v-210h395v-107h-519v712h513z" />
    <glyph glyph-name="F" unicode="F" horiz-adv-x="593" 
d="M568 712v-106h-367v-194h322v-101h-322v-311h-126v712h493z" />
    <glyph glyph-name="G" unicode="G" horiz-adv-x="759" 
d="M700 381v-381h-80l-19 85q-85 -102 -222 -102q-150 0 -243.5 102t-93.5 266q0 161 94 268.5t254 107.5q116 0 202.5 -65t98.5 -177h-121q-11 64 -59.5 100.5t-121.5 36.5q-103 0 -162 -72t-59 -197q0 -126 59.5 -197.5t165.5 -71.5q93 0 143.5 58t50.5 143h-192v96h305z
" />
    <glyph glyph-name="H" unicode="H" horiz-adv-x="722" 
d="M649 712v-712h-125v320h-326v-320h-125v712h125v-283h326v283h125z" />
    <glyph glyph-name="I" unicode="I" horiz-adv-x="278" 
d="M202 712v-712h-126v712h126z" />
    <glyph glyph-name="J" unicode="J" horiz-adv-x="537" 
d="M470 712v-501q0 -112 -55.5 -170t-163.5 -58q-121 0 -173.5 61t-52.5 179v27h119v-39q0 -61 22 -93.5t81 -32.5q27 0 46 8.5t29 20t15.5 32.5t6.5 37.5t1 44.5v484h125z" />
    <glyph glyph-name="K" unicode="K" horiz-adv-x="685" 
d="M671 712l-285 -284l303 -428h-155l-234 341l-102 -102v-239h-124v712h124v-323l315 323h158z" />
    <glyph glyph-name="L" unicode="L" horiz-adv-x="574" 
d="M562 108v-108h-488v712h126v-604h362z" />
    <glyph glyph-name="M" unicode="M" horiz-adv-x="889" 
d="M815 712v-712h-119v549l-198 -549h-102l-203 549v-549h-118v712h175l199 -557l192 557h174z" />
    <glyph glyph-name="N" unicode="N" horiz-adv-x="722" 
d="M652 712v-712h-129l-332 524v-524h-118v712h131l328 -525v525h120z" />
    <glyph glyph-name="O" unicode="O" horiz-adv-x="760" 
d="M382 729q151 0 245.5 -103.5t94.5 -269.5t-95 -269.5t-247 -103.5q-153 0 -247.5 103t-94.5 270q0 162 92.5 267.5t251.5 105.5zM380 624q-98 0 -157 -72.5t-59 -193.5q0 -124 58.5 -197t159.5 -73q97 0 155.5 73.5t58.5 195.5t-58.5 194.5t-157.5 72.5z" />
    <glyph glyph-name="P" unicode="P" horiz-adv-x="667" 
d="M77 712h309q115 0 181.5 -54.5t66.5 -162.5q0 -102 -62 -161.5t-169 -59.5h-201v-274h-125v712zM202 608v-233h174q136 0 136 117q0 116 -147 116h-163z" />
    <glyph glyph-name="Q" unicode="Q" horiz-adv-x="760" 
d="M713 2l-61 -68l-106 90q-65 -41 -169 -41q-151 0 -245 102.5t-94 268.5q0 165 95.5 269t247.5 104q150 0 245 -103.5t95 -266.5q0 -85 -26.5 -157t-74.5 -118zM532 159q64 81 64 197q0 121 -59 193.5t-158 72.5q-98 0 -156.5 -72.5t-58.5 -193.5q0 -124 59 -197.5
t158 -73.5q42 0 80 17l-73 62l60 68z" />
    <glyph glyph-name="R" unicode="R" horiz-adv-x="704" 
d="M74 712h337q106 0 173 -47.5t67 -150.5q0 -64 -31 -109.5t-87 -65.5q26 -6 45 -18t29.5 -26t17.5 -36t9.5 -38.5t4.5 -43.5q1 -7 2.5 -27t2 -26.5t2 -22.5t2.5 -22.5t3.5 -19t4.5 -19t5 -15t7 -14.5t9 -11h-134q-3 4 -5.5 9.5t-4.5 12t-3 12t-2.5 15t-2 15.5l-1.5 18
l-1.5 18t-1.5 21t-1 21q-5 87 -36.5 119.5t-119.5 32.5h-166v-294h-124v712zM198 610v-223h165q36 0 61 4t50.5 14.5t39 34.5t13.5 61q0 34 -12 56.5t-34.5 33.5t-46 15t-55.5 4h-181z" />
    <glyph glyph-name="S" unicode="S" horiz-adv-x="648" 
d="M587 502h-119q-11 125 -155 125q-64 0 -100 -26.5t-36 -72.5q0 -43 26.5 -59t117.5 -39q24 -7 37 -10q119 -30 162 -54q95 -51 95 -159q0 -47 -16 -85t-43 -63.5t-64 -42.5t-77 -24.5t-83 -7.5q-134 0 -217 64t-83 188h123q0 -78 51 -115.5t133 -37.5q72 0 112.5 29.5
t40.5 82.5q0 34 -21.5 55.5t-46.5 30.5t-87 25q-7 2 -11 3q-133 34 -175 56q-87 45 -93 139v14q0 95 71.5 151.5t191.5 56.5q116 0 189 -55t77 -169z" />
    <glyph glyph-name="T" unicode="T" horiz-adv-x="593" 
d="M586 712v-108h-227v-604h-125v604h-227v108h579z" />
    <glyph glyph-name="U" unicode="U" horiz-adv-x="722" 
d="M653 712v-436q0 -290 -290 -290q-151 0 -222.5 72t-71.5 220v434h125v-459q0 -164 171 -164q52 0 85.5 14t49.5 43t22 62.5t6 83.5v420h125z" />
    <glyph glyph-name="V" unicode="V" horiz-adv-x="611" 
d="M-5 712h131l180 -563l184 563h127l-244 -712h-139z" />
    <glyph glyph-name="W" unicode="W" horiz-adv-x="944" 
d="M8 712h127l130 -542l146 542h127l141 -542l134 542h127l-197 -712h-127l-144 547l-147 -547h-129z" />
    <glyph glyph-name="X" unicode="X" horiz-adv-x="648" 
d="M-6 0l254 369l-236 343h149l162 -252l169 252h140l-236 -343l253 -369h-152l-178 272l-181 -272h-144z" />
    <glyph glyph-name="Y" unicode="Y" horiz-adv-x="648" 
d="M655 712l-268 -429v-283h-123v283l-269 429h144l189 -315l187 315h140z" />
    <glyph glyph-name="Z" unicode="Z" horiz-adv-x="630" 
d="M592 712v-99l-415 -505h427v-108h-585v103l412 501h-382v108h543z" />
    <glyph glyph-name="bracketleft" unicode="[" horiz-adv-x="296" 
d="M295 720v-89h-118v-722h118v-89h-224v900h224z" />
    <glyph glyph-name="backslash" unicode="\" horiz-adv-x="352" 
d="M259 -17l-256 746h92l256 -746h-92z" />
    <glyph glyph-name="bracketright" unicode="]" horiz-adv-x="296" 
d="M1 720h224v-900h-224v89h118v722h-118v89z" />
    <glyph glyph-name="asciicircum" unicode="^" horiz-adv-x="600" 
d="M80 271l175 425h90l175 -425h-103l-119 298l-115 -298h-103z" />
    <glyph glyph-name="underscore" unicode="_" horiz-adv-x="500" 
d="M0 -125v50h500v-50h-500z" />
    <glyph glyph-name="grave" unicode="`" horiz-adv-x="241" 
d="M98 727l91 -143h-83l-142 143h134z" />
    <glyph glyph-name="a" unicode="a" 
d="M55 357q18 175 226 175q97 0 154.5 -38t57.5 -118v-262q0 -22 5.5 -30t21.5 -8q12 0 26 2v-80q-44 -11 -74 -11q-73 0 -84 62q-65 -62 -181 -62q-80 0 -127 41.5t-47 112.5q0 22 5 41t11.5 33t21 26t24 20t31 15t32 10.5t36.5 7.5t34.5 5.5t35.5 4.5q61 8 83 13.5
t30 16.5q7 8 7 37q0 78 -106 78q-56 0 -82 -21t-33 -71h-108zM383 259q-13 -7 -30 -12.5t-27.5 -7t-33 -4.5t-29.5 -4q-21 -3 -33 -5.5t-29.5 -8.5t-27 -14.5t-16.5 -23t-7 -34.5q0 -37 24.5 -57t68.5 -20q76 0 117 41q23 23 23 89v61z" />
    <glyph glyph-name="b" unicode="b" horiz-adv-x="611" 
d="M174 712v-263q57 80 169 80q103 0 165.5 -73t62.5 -194q0 -125 -64 -200.5t-170 -75.5q-117 0 -169 84v-70h-107v712h113zM314 438q-67 1 -105.5 -47.5t-38.5 -133.5q0 -83 38.5 -131t105.5 -48q64 0 103 49.5t39 132.5q0 82 -38.5 130t-103.5 48z" />
    <glyph glyph-name="c" unicode="c" 
d="M528 195q-12 -95 -76 -151.5t-161 -56.5q-116 0 -185 73.5t-69 192.5q0 128 69.5 203.5t187.5 75.5q99 0 159.5 -50t70.5 -139h-113q-10 49 -40 75t-76 26q-66 0 -104 -49.5t-38 -135.5t36.5 -134t101.5 -48q51 0 83.5 30.5t41.5 87.5h112z" />
    <glyph glyph-name="d" unicode="d" horiz-adv-x="611" 
d="M549 712v-712h-107v71q-49 -85 -165 -85q-109 0 -173.5 74t-64.5 199q0 124 63.5 197.5t170.5 73.5q109 0 164 -81v263h112zM294 438q-65 0 -102.5 -47.5t-37.5 -129.5q0 -85 38.5 -134t105.5 -49t104.5 48t37.5 133t-38.5 132t-107.5 47z" />
    <glyph glyph-name="e" unicode="e" 
d="M522 161q-19 -84 -82.5 -131t-151.5 -47q-117 0 -185.5 75.5t-68.5 193.5q0 121 70.5 200t179.5 79q113 0 179 -77.5t66 -211.5v-12h-381q2 -78 39 -120.5t103 -42.5q47 0 76.5 22.5t46.5 71.5h109zM415 306q-5 65 -40.5 102.5t-91.5 37.5t-90.5 -36t-42.5 -104h265z" />
    <glyph glyph-name="f" unicode="f" horiz-adv-x="315" 
d="M316 713v-88q-33 3 -50 3q-35 0 -47 -12.5t-12 -49.5v-50h98v-83h-97v-433h-113v433h-85v83h85v41q0 81 35 120t118 39q34 0 68 -3z" />
    <glyph glyph-name="g" unicode="g" horiz-adv-x="593" 
d="M533 516v-456q0 -133 -56.5 -197t-191.5 -64q-212 0 -231 157h114q16 -77 120 -77q71 0 103.5 36t32.5 116v61q-56 -87 -164 -87q-103 0 -163.5 69.5t-60.5 187.5q0 121 63 194.5t167 73.5q55 0 92 -20.5t69 -65.5v72h106zM286 438q-64 0 -100.5 -46t-36.5 -128
q0 -78 37.5 -124t99.5 -46q64 0 101 47.5t37 128.5q0 79 -36.5 123.5t-101.5 44.5z" />
    <glyph glyph-name="h" unicode="h" horiz-adv-x="574" 
d="M174 712v-267q57 84 163 84q84 0 131 -45.5t47 -133.5v-350h-115v313q0 59 -20.5 90t-79.5 31q-66 0 -96 -43t-30 -114v-277h-113v712h113z" />
    <glyph glyph-name="i" unicode="i" horiz-adv-x="241" 
d="M177 715v-112h-114v112h114zM177 516v-516h-114v516h114z" />
    <glyph glyph-name="j" unicode="j" horiz-adv-x="241" 
d="M181 516v-543q0 -91 -33.5 -131t-118.5 -40q-15 0 -48 3v93q26 -2 27 -2q32 0 45.5 9t13.5 38v573h114zM181 716v-113h-114v113h114z" />
    <glyph glyph-name="k" unicode="k" horiz-adv-x="537" 
d="M518 516l-198 -189l216 -327h-139l-157 249l-68 -64v-185h-111v712h111v-401l206 205h140z" />
    <glyph glyph-name="l" unicode="l" horiz-adv-x="241" 
d="M177 712v-712h-113v712h113z" />
    <glyph glyph-name="m" unicode="m" horiz-adv-x="870" 
d="M169 516v-73q64 87 162 87q51 0 88.5 -23t55.5 -65q62 88 167 88q73 0 121 -43.5t48 -120.5v-366h-114v317q0 55 -19 86t-73 31q-55 0 -84 -34.5t-29 -96.5v-303h-114v323q0 55 -16.5 83t-68.5 28q-58 0 -88 -37.5t-30 -99.5v-297h-114v516h108z" />
    <glyph glyph-name="n" unicode="n" horiz-adv-x="574" 
d="M169 516v-76q62 90 171 90q88 0 131.5 -48t43.5 -138v-344h-114v300q0 31 -3 51.5t-12.5 41.5t-30.5 31.5t-54 10.5q-126 0 -126 -157v-278h-114v516h108z" />
    <glyph glyph-name="o" unicode="o" horiz-adv-x="593" 
d="M299 531q118 0 188 -74t70 -199q0 -126 -69.5 -200t-188.5 -74q-121 0 -192 74t-71 200q0 125 71.5 199t191.5 74zM297 441q-68 0 -107 -49t-39 -134q0 -87 39 -136t108 -49q67 0 105.5 49.5t38.5 136.5q0 85 -38.5 133.5t-106.5 48.5z" />
    <glyph glyph-name="p" unicode="p" horiz-adv-x="611" 
d="M169 516v-69q52 84 168 84q107 0 171 -75t64 -200q0 -122 -62.5 -195.5t-166.5 -73.5q-110 0 -168 81v-259h-113v707h107zM314 439q-67 0 -105 -48t-38 -133q0 -84 38.5 -132t106.5 -48q65 0 103 48t38 130q0 84 -38.5 133.5t-104.5 49.5z" />
    <glyph glyph-name="q" unicode="q" horiz-adv-x="611" 
d="M549 516v-707h-112v260q-61 -82 -169 -82q-105 0 -167 72.5t-62 196.5q0 127 63.5 201t172.5 74q114 0 167 -83v68h107zM294 439q-64 0 -102 -49.5t-38 -134.5q0 -82 38 -129.5t104 -47.5q68 0 106 48.5t38 134.5q0 84 -38.5 131t-107.5 47z" />
    <glyph glyph-name="r" unicode="r" horiz-adv-x="352" 
d="M352 526v-109q-30 3 -40 3q-149 0 -149 -193v-227h-113v516h107v-103q55 115 173 115z" />
    <glyph glyph-name="s" unicode="s" horiz-adv-x="519" 
d="M469 366h-109q-10 82 -112 82q-44 0 -68 -16t-24 -44q0 -9 1.5 -16t6 -12.5t8 -9.5t12.5 -8t14.5 -6.5t18.5 -6t20.5 -5.5t24.5 -5.5t26 -5.5q39 -9 56.5 -13.5t51 -18t49.5 -28t29.5 -40t13.5 -58.5q0 -78 -61 -124t-164 -46q-110 0 -169 46t-63 134h109q9 -97 125 -97
q50 0 80.5 20.5t30.5 54.5q0 17 -7.5 29t-24.5 20.5t-32.5 13t-41.5 10.5l-6 1.5t-5 1t-6 1.5q-110 27 -140 42q-71 34 -71 113q0 73 56 114.5t155 41.5q95 0 155.5 -41t60.5 -124z" />
    <glyph glyph-name="t" unicode="t" horiz-adv-x="333" 
d="M312 516v-83h-104v-272q0 -24 1 -33.5t6 -21t17.5 -15.5t34.5 -4q28 0 45 2v-90q-34 -4 -77 -4q-30 0 -52.5 4.5t-37.5 10.5t-25 20.5t-15.5 24t-8 33.5t-2.5 36.5v43.5v6.5v6v6.5v246h-86v83h86v155h114v-155h104z" />
    <glyph glyph-name="u" unicode="u" horiz-adv-x="574" 
d="M513 516v-516h-107v77q-65 -91 -170 -91q-85 0 -130.5 48.5t-45.5 139.5v342h114v-295q0 -27 1 -43.5t6.5 -37t16 -31.5t30 -19t47.5 -8q64 0 94 45.5t30 115.5v273h114z" />
    <glyph glyph-name="v" unicode="v" horiz-adv-x="519" 
d="M8 516h124l132 -397l127 397h118l-185 -517h-128z" />
    <glyph glyph-name="w" unicode="w" horiz-adv-x="778" 
d="M12 516h121l102 -387l97 387h115l95 -387l107 387h116l-163 -516h-117l-97 383l-96 -383h-120z" />
    <glyph glyph-name="x" unicode="x" horiz-adv-x="537" 
d="M198 271l-179 245h138l108 -159l113 159h132l-175 -239l197 -277h-137l-131 190l-127 -190h-134z" />
    <glyph glyph-name="y" unicode="y" horiz-adv-x="519" 
d="M515 516l-191 -506q-3 -7 -11 -29.5t-11 -30.5t-11.5 -28t-13.5 -28l-15 -24t-18.5 -23t-21 -17.5t-25.5 -15t-29.5 -8t-35.5 -3.5q-32 0 -79 6v96q36 -7 60 -7q12 0 22 3.5t18 12t14 16t11.5 21t8.5 21t8 23.5t6 20l-198 501h125l138 -380l130 380h119z" />
    <glyph glyph-name="z" unicode="z" horiz-adv-x="500" 
d="M462 516v-80l-292 -344h307v-92h-455v87l288 339h-268v90h420z" />
    <glyph glyph-name="braceleft" unicode="{" horiz-adv-x="296" 
d="M-24 300q69 11 98.5 39.5t29.5 89.5v76q0 116 52.5 163t163.5 52v-61q-63 -6 -90.5 -39t-27.5 -103v-58q0 -87 -28.5 -133t-110.5 -56q85 -13 112 -57t27 -133v-60q0 -65 27 -99.5t91 -39.5v-61q-115 6 -165.5 51t-50.5 162v59q0 74 -25 104t-103 43v61z" />
    <glyph glyph-name="bar" unicode="|" horiz-adv-x="222" 
d="M61 -214v1000h100v-1000h-100z" />
    <glyph glyph-name="braceright" unicode="}" horiz-adv-x="296" 
d="M320 239q-78 -13 -103 -43t-25 -104v-59q0 -117 -50.5 -162t-165.5 -51v61q64 5 91 39.5t27 99.5v60q0 89 27 133t112 57q-82 10 -110.5 56t-28.5 133v58q0 70 -27.5 103t-90.5 39v61q111 -5 163.5 -52t52.5 -163v-76q0 -61 29.5 -89.5t98.5 -39.5v-61z" />
    <glyph glyph-name="asciitilde" unicode="~" horiz-adv-x="600" 
d="M567 340q-8 -79 -45 -121t-98 -42q-33 0 -134 32q-7 3 -29 10.5t-36 12.5t-31.5 9.5t-28.5 4.5q-26 0 -44.5 -19.5t-22.5 -51.5h-65q7 70 42 117t100 47q30 0 135 -34q10 -3 27.5 -9t25 -8.5l19.5 -6.5t19.5 -5.5t17 -2.5t18.5 -1q53 0 65 68h65z" />
    <glyph glyph-name="sterling" unicode="&#xa3;" 
d="M218 383h146v-63h-118v-1q12 -36 12 -69q0 -42 -23 -79.5t-77 -81.5q55 25 101 25q33 0 76 -12q51 -15 74 -15q55 0 94 39l51 -85q-55 -55 -151 -55q-32 0 -115 24q-57 17 -95 17q-42 0 -103 -39l-54 81q109 74 109 168q0 35 -23 83h-89v63h58q-16 21 -29 63.5t-13 69.5
q0 91 66.5 148t173.5 57q115 0 178.5 -63t63.5 -176h-113q-5 141 -129 141q-52 0 -85.5 -32t-33.5 -81q0 -8 1.5 -17t3 -16t5.5 -17.5t6 -15.5t8 -16.5t7.5 -14.5t8.5 -16t8 -14z" />
    <glyph glyph-name="currency" unicode="&#xa4;" 
d="M34 160l66 66q-37 60 -37 120q0 66 37 120l-66 66l58 58l66 -66q49 37 120 37q62 0 121 -37l65 66l58 -58l-66 -66q37 -49 37 -121q0 -61 -37 -119l66 -66l-58 -58l-66 66q-50 -37 -119 -37q-67 0 -121 37l-66 -66zM278 474q-53 0 -90.5 -37.5t-37.5 -90.5t37.5 -90.5
t90.5 -37.5t90.5 37.5t37.5 90.5t-37.5 90.5t-90.5 37.5z" />
    <glyph glyph-name="brokenbar" unicode="&#xa6;" horiz-adv-x="222" 
d="M61 -89v250h100v-250h-100zM61 411v250h100v-250h-100z" />
    <glyph glyph-name="section" unicode="&#xa7;" 
d="M479 541h-105q-3 46 -27 70t-66 24q-38 0 -61 -19.5t-23 -51.5q0 -10 3 -19t6.5 -16t12.5 -15.5t16 -14t23 -15t27 -15.5t34 -18.5t38 -20.5q87 -48 114 -71q60 -51 60 -119q0 -49 -27 -88t-76 -59q55 -44 55 -115q0 -74 -56.5 -121t-144.5 -47q-97 0 -153 51t-58 140
h107q11 -100 105 -100q39 0 63.5 20.5t24.5 53.5q0 38 -37 65.5t-159 92.5q-47 24 -75 44t-51.5 56.5t-23.5 82.5q0 51 28.5 90t76.5 53q-44 45 -44 102q0 72 55 117.5t142 45.5q89 0 142.5 -50t53.5 -133zM189 405q-28 -8 -45.5 -30.5t-17.5 -49.5q0 -46 59 -78l181 -102
q27 9 44.5 31.5t17.5 47.5q0 44 -56 76z" />
    <glyph glyph-name="copyright" unicode="&#xa9;" horiz-adv-x="800" 
d="M400 729q154 0 263.5 -109.5t109.5 -263.5t-109.5 -263.5t-263.5 -109.5t-263.5 109.5t-109.5 263.5t109.5 263.5t263.5 109.5zM400 680q-134 0 -229 -95t-95 -229t95 -229t229 -95t229 95t95 229t-95 229t-229 95zM585 288q-7 -65 -56.5 -107.5t-118.5 -42.5
q-89 0 -147.5 62.5t-58.5 156.5q0 96 55.5 158t141.5 62q74 0 126 -44t56 -111h-76q-8 42 -35.5 66t-68.5 24q-53 0 -85 -42t-32 -110q0 -72 33 -114.5t89 -42.5q82 0 101 85h76z" />
    <glyph glyph-name="guillemotleft" unicode="&#xab;" horiz-adv-x="463" 
d="M402 441v-104l-95 -72l95 -74v-103l-155 121v110zM207 441v-102l-97 -73l97 -75v-104l-157 124v108z" />
    <glyph glyph-name="logicalnot" unicode="&#xac;" horiz-adv-x="600" 
d="M42 317v96h517v-311h-98v215h-419z" />
    <glyph glyph-name="registered" unicode="&#xae;" horiz-adv-x="400" 
d="M199 729q77 0 132 -54.5t55 -131.5q1 -77 -54.5 -132t-132.5 -55t-131.5 55t-54.5 132t54.5 131.5t131.5 54.5zM199 697q-64 0 -109 -45t-45 -109t45 -109.5t109 -45.5t109 45.5t45 109.5t-45 109t-109 45zM122 646h73q91 0 91 -60q0 -36 -37 -49q19 -7 26 -21.5t8 -46.5
q0 -15 5 -28h-46q-4 12 -4 28q-1 31 -10 40t-38 9h-22v-77h-46v205zM168 554h25q46 0 46 28q0 27 -46 27h-25v-55z" />
    <glyph glyph-name="degree" unicode="&#xb0;" horiz-adv-x="400" 
d="M200 706q67 0 114 -47t47 -114t-47 -114t-114 -47t-114 47t-47 114t47 114t114 47zM200 624q-33 0 -56 -23t-23 -56q0 -32 23 -55.5t56 -23.5t56 23.5t23 55.5q0 33 -23 56t-56 23z" />
    <glyph glyph-name="plusminus" unicode="&#xb1;" horiz-adv-x="600" 
d="M249 115v158h-207v96h207v162h102v-162h208v-96h-208v-158h-102zM42 -16v95h517v-95h-517z" />
    <glyph glyph-name="mu" unicode="&#xb5;" horiz-adv-x="574" 
d="M56 -191v707h114v-229q0 -106 15 -145q24 -66 96 -66q33 0 56.5 14t36.5 34t20 50.5t9 55.5t2 57v229h114v-516h-97v71q-29 -42 -61.5 -62t-81.5 -20q-44 0 -71.5 19t-37.5 37v-236h-114z" />
    <glyph glyph-name="paragraph" unicode="&#xb6;" horiz-adv-x="600" 
d="M569 635h-54v-817h-93v817h-111v-817h-94v431q-94 7 -147 66.5t-53 155.5q0 111 70 176t190 65h292v-77z" />
    <glyph glyph-name="periodcentered" unicode="&#xb7;" horiz-adv-x="278" 
d="M207 358v-135h-136v135h136z" />
    <glyph glyph-name="guillemotright" unicode="&#xbb;" horiz-adv-x="463" 
d="M256 442l157 -125v-108l-157 -121v102l96 72l-96 76v104zM61 441l154 -122v-109l-154 -120v101l95 72l-95 74v104z" />
    <glyph glyph-name="divide" unicode="&#xf7;" horiz-adv-x="600" 
d="M42 210v95h517v-95h-517zM241 9v130h118v-130h-118zM241 376v130h118v-130h-118z" />
    <glyph glyph-name="florin" unicode="&#x192;" 
d="M440 438l-15 -80h-101l-62 -330q-20 -110 -59.5 -153.5t-143.5 -43.5q-14 0 -59 3l15 89q16 -1 39 -1q14 0 26 3t19.5 6t14.5 12t10.5 13t7.5 18t5.5 18t4.5 22t4 22l62 322h-92l15 80h92l20 108q17 91 61 130t132 39q27 0 65 -3l-17 -89q-21 2 -40 2q-39 0 -57 -18.5
t-29 -69.5l-20 -99h102z" />
    <glyph glyph-name="afii10023" unicode="&#x401;" horiz-adv-x="630" 
d="M587 712v-105h-389v-189h361v-101h-361v-210h395v-107h-519v712h513zM484 881v-108h-111v108h111zM285 881v-108h-112v108h112z" />
    <glyph glyph-name="afii10051" unicode="&#x402;" horiz-adv-x="778" 
d="M752 160q0 -122 -70.5 -201.5t-173.5 -79.5q-10 0 -34 2v95q66 0 109.5 51t43.5 136q0 86 -37 133.5t-108 47.5q-67 0 -105 -48t-38 -133v-163h-125v604h-206v108h578v-108h-247v-243q56 81 162 81q117 0 184 -77.5t67 -204.5z" />
    <glyph glyph-name="afii10052" unicode="&#x403;" horiz-adv-x="563" 
d="M201 0h-125v712h483v-108h-358v-604zM431 900l-135 -143h-82l85 143h132z" />
    <glyph glyph-name="afii10053" unicode="&#x404;" horiz-adv-x="722" 
d="M682 239q-18 -117 -100 -186.5t-206 -69.5q-151 0 -242 102t-91 271q0 102 39 185.5t117 135t183 51.5q110 0 192.5 -59t103.5 -171h-125q-16 58 -62 91t-111 33q-89 0 -140.5 -57.5t-65.5 -146.5h301v-101h-304q8 -98 60 -163t148 -65q143 0 177 150h126z" />
    <glyph glyph-name="afii10054" unicode="&#x405;" horiz-adv-x="648" 
d="M587 502h-119q-11 125 -155 125q-64 0 -100 -26.5t-36 -72.5q0 -43 26.5 -59t117.5 -39q24 -7 37 -10q119 -30 162 -54q95 -51 95 -159q0 -47 -16 -85t-43 -63.5t-64 -42.5t-77 -24.5t-83 -7.5q-134 0 -217 64t-83 188h123q0 -78 51 -115.5t133 -37.5q72 0 112.5 29.5
t40.5 82.5q0 34 -21.5 55.5t-46.5 30.5t-87 25q-7 2 -11 3q-133 34 -175 56q-87 45 -93 139v14q0 95 71.5 151.5t191.5 56.5q116 0 189 -55t77 -169z" />
    <glyph glyph-name="afii10055" unicode="&#x406;" horiz-adv-x="278" 
d="M202 712v-712h-126v712h126z" />
    <glyph glyph-name="afii10056" unicode="&#x407;" horiz-adv-x="278" 
d="M202 712v-712h-126v712h126zM294 880v-109h-111v109h111zM95 880v-109h-112v109h112z" />
    <glyph glyph-name="afii10057" unicode="&#x408;" horiz-adv-x="537" 
d="M470 712v-501q0 -112 -55.5 -170t-163.5 -58q-121 0 -173.5 61t-52.5 179v27h119v-39q0 -61 22 -93.5t81 -32.5q27 0 46 8.5t29 20t15.5 32.5t6.5 37.5t1 44.5v484h125z" />
    <glyph glyph-name="afii10058" unicode="&#x409;" horiz-adv-x="1035" 
d="M1002 221q0 -106 -63.5 -163.5t-179.5 -57.5h-270v604h-202l-13 -339q-6 -142 -57.5 -210t-133.5 -68q-36 0 -75 13v96q20 -8 49 -8t47 14t32 62.5t17 134.5l14 413h447v-272h145q117 0 180 -57t63 -162zM877 218q0 56 -33 88t-92 32h-138v-236h140q123 0 123 116z" />
    <glyph glyph-name="afii10059" unicode="&#x40a;" horiz-adv-x="1035" 
d="M482 338h-284v-338h-125v712h125v-271h284v271h125v-272h152q117 0 180 -57t63 -162q0 -106 -63.5 -163.5t-179.5 -57.5h-277v338zM877 218q0 56 -33 88t-92 32h-145v-236h147q123 0 123 116z" />
    <glyph glyph-name="afii10060" unicode="&#x40b;" horiz-adv-x="778" 
d="M492 442q62 0 109.5 -15.5t73 -38t41.5 -53.5t21 -56.5t5 -53.5v-225h-125v187q0 24 -1 38t-9 37t-22 36t-43 23t-70 10q-65 0 -133 -11v-320h-125v604h-206v108h578v-108h-247v-176q94 14 153 14z" />
    <glyph glyph-name="afii10061" unicode="&#x40c;" horiz-adv-x="685" 
d="M671 712l-285 -284l303 -428h-155l-234 341l-102 -102v-239h-124v712h124v-323l315 323h158zM491 900l-135 -143h-82l85 143h132z" />
    <glyph glyph-name="afii10062" unicode="&#x40e;" horiz-adv-x="611" 
d="M241 200l-246 512h138l172 -382l176 382h135l-277 -567q-43 -88 -92 -125t-111 -37q-44 0 -84 18v105q29 -18 80 -18q32 0 54 25.5t54 85.5zM473 892q-8 -72 -48 -106.5t-116 -34.5t-116 34.5t-48 106.5h58q19 -76 106 -76t106 76h58z" />
    <glyph glyph-name="afii10145" unicode="&#x40f;" horiz-adv-x="722" 
d="M524 108v604h125v-712h-226v-177h-125v177h-225v712h125v-604h326z" />
    <glyph glyph-name="afii10017" unicode="&#x410;" horiz-adv-x="667" 
d="M400 713l275 -713h-134l-68 189h-282l-70 -189h-129l275 713h133zM440 283l-106 300l-111 -300h217z" />
    <glyph glyph-name="afii10018" unicode="&#x411;" horiz-adv-x="704" 
d="M657 221q0 -106 -63.5 -163.5t-179.5 -57.5h-338v712h524v-108h-399v-164h213q117 0 180 -57t63 -162zM532 218q0 56 -33 88t-92 32h-206v-236h208q123 0 123 116z" />
    <glyph glyph-name="afii10019" unicode="&#x412;" horiz-adv-x="704" 
d="M74 712h325q112 0 171.5 -48.5t59.5 -130.5q0 -51 -28 -91.5t-74 -58.5q62 -15 98 -60t36 -113q0 -94 -62.5 -152t-162.5 -58h-363v712zM196 611v-196h170q72 0 106 22.5t34 75.5q0 60 -35.5 79t-100.5 19h-174zM196 325v-223h187q72 0 113 24t41 87q0 35 -12.5 58.5
t-36 34.5t-48.5 15t-59 4h-185z" />
    <glyph glyph-name="afii10020" unicode="&#x413;" horiz-adv-x="563" 
d="M201 0h-125v712h483v-108h-358v-604z" />
    <glyph glyph-name="afii10021" unicode="&#x414;" horiz-adv-x="722" 
d="M711 -177h-121v177h-464v-177h-121v285h69q41 72 67 210t26 284v110h464v-604h80v-285zM506 108v496h-217v-43q0 -129 -23.5 -256.5t-57.5 -196.5h298z" />
    <glyph glyph-name="afii10022" unicode="&#x415;" horiz-adv-x="630" 
d="M587 712v-105h-389v-189h361v-101h-361v-210h395v-107h-519v712h513z" />
    <glyph glyph-name="afii10024" unicode="&#x416;" horiz-adv-x="1043" 
d="M382 320l-233 -320h-156l308 410l-274 302h154l278 -320v320h125v-320l278 320h154l-274 -302l308 -410h-156l-233 320l-77 -86v-234h-125v234z" />
    <glyph glyph-name="afii10025" unicode="&#x417;" horiz-adv-x="648" 
d="M604 206q0 -36 -15 -72.5t-45.5 -71t-85.5 -56.5t-126 -22q-134 0 -217 64t-83 188h123q0 -78 51 -115.5t133 -37.5q68 0 104 32t36 93q0 56 -35.5 85t-97.5 29h-87v97h87q49 0 81.5 31t32.5 80q0 47 -33 73.5t-93 26.5q-144 0 -155 -125h-119q4 114 77 169t189 55
q113 0 185 -48.5t72 -144.5q0 -54 -35 -98t-79 -55v-3q60 -12 97.5 -59.5t37.5 -114.5z" />
    <glyph glyph-name="afii10026" unicode="&#x418;" horiz-adv-x="722" 
d="M73 0v712h125v-546l306 546h145v-712h-125v546l-306 -546h-145z" />
    <glyph glyph-name="afii10027" unicode="&#x419;" horiz-adv-x="722" 
d="M525 892q-8 -72 -48 -106.5t-116 -34.5t-116 34.5t-48 106.5h58q19 -76 106 -76t106 76h58zM73 0v712h125v-546l306 546h145v-712h-125v546l-306 -546h-145z" />
    <glyph glyph-name="afii10028" unicode="&#x41a;" horiz-adv-x="685" 
d="M671 712l-285 -284l303 -428h-155l-234 341l-102 -102v-239h-124v712h124v-323l315 323h158z" />
    <glyph glyph-name="afii10029" unicode="&#x41b;" horiz-adv-x="704" 
d="M632 0h-125v604h-220l-13 -339q-6 -142 -57.5 -210t-133.5 -68q-36 0 -75 13v96q20 -8 49 -8t47 14t32 62.5t17 134.5l14 413h465v-712z" />
    <glyph glyph-name="afii10030" unicode="&#x41c;" horiz-adv-x="889" 
d="M815 712v-712h-119v549l-198 -549h-102l-203 549v-549h-118v712h175l199 -557l192 557h174z" />
    <glyph glyph-name="afii10031" unicode="&#x41d;" horiz-adv-x="722" 
d="M649 712v-712h-125v320h-326v-320h-125v712h125v-283h326v283h125z" />
    <glyph glyph-name="afii10032" unicode="&#x41e;" horiz-adv-x="760" 
d="M382 729q151 0 245.5 -103.5t94.5 -269.5t-95 -269.5t-247 -103.5q-153 0 -247.5 103t-94.5 270q0 162 92.5 267.5t251.5 105.5zM380 624q-98 0 -157 -72.5t-59 -193.5q0 -124 58.5 -197t159.5 -73q97 0 155.5 73.5t58.5 195.5t-58.5 194.5t-157.5 72.5z" />
    <glyph glyph-name="afii10033" unicode="&#x41f;" horiz-adv-x="722" 
d="M649 712v-712h-125v604h-326v-604h-125v712h576z" />
    <glyph glyph-name="afii10034" unicode="&#x420;" horiz-adv-x="667" 
d="M77 712h309q115 0 181.5 -54.5t66.5 -162.5q0 -102 -62 -161.5t-169 -59.5h-201v-274h-125v712zM202 608v-233h174q136 0 136 117q0 116 -147 116h-163z" />
    <glyph glyph-name="afii10035" unicode="&#x421;" horiz-adv-x="722" 
d="M685 271q-10 -131 -93.5 -209.5t-216.5 -78.5q-151 0 -242 102t-91 271q0 102 39 185.5t117 135t183 51.5q113 0 197 -62.5t101 -180.5h-124q-13 64 -60 100.5t-116 36.5q-71 0 -120.5 -40t-70 -98.5t-20.5 -127.5q0 -52 12 -98t36 -84.5t65.5 -61.5t96.5 -23
q159 0 182 182h125z" />
    <glyph glyph-name="afii10036" unicode="&#x422;" horiz-adv-x="593" 
d="M586 712v-108h-227v-604h-125v604h-227v108h579z" />
    <glyph glyph-name="afii10037" unicode="&#x423;" horiz-adv-x="611" 
d="M241 200l-246 512h138l172 -382l176 382h135l-277 -567q-43 -88 -92 -125t-111 -37q-44 0 -84 18v105q29 -18 80 -18q32 0 54 25t54 85z" />
    <glyph glyph-name="afii10038" unicode="&#x424;" horiz-adv-x="807" 
d="M773 359q0 -131 -91 -204t-216 -75v-80h-125v80q-79 2 -147 31.5t-114 94t-46 153.5q0 130 88.5 205t218.5 79v69h125v-69q132 -5 219.5 -79.5t87.5 -204.5zM648 359q0 157 -182 176v-347q88 11 135 50t47 121zM341 188v347q-182 -19 -182 -176q0 -82 47 -121t135 -50z
" />
    <glyph glyph-name="afii10039" unicode="&#x425;" horiz-adv-x="648" 
d="M-6 0l254 369l-236 343h149l162 -252l169 252h140l-236 -343l253 -369h-152l-178 272l-181 -272h-144z" />
    <glyph glyph-name="afii10040" unicode="&#x426;" horiz-adv-x="734" 
d="M646 108h78v-285h-121v177h-533v712h125v-604h326v604h125v-604z" />
    <glyph glyph-name="afii10041" unicode="&#x427;" horiz-adv-x="685" 
d="M487 312q-115 -20 -187 -20q-62 0 -109.5 15.5t-73 38t-41.5 53.5t-21 56.5t-5 53.5v203h125v-165q0 -24 1 -38t9 -37t22 -36t43 -23t70 -10q82 0 167 17v292h125v-712h-125v312z" />
    <glyph glyph-name="afii10042" unicode="&#x428;" horiz-adv-x="1073" 
d="M73 0v712h125v-604h276v604h125v-604h276v604h125v-712h-927z" />
    <glyph glyph-name="afii10043" unicode="&#x429;" horiz-adv-x="1085" 
d="M70 0v712h125v-604h276v604h125v-604h276v604h125v-604h78v-285h-121v177h-884z" />
    <glyph glyph-name="afii10044" unicode="&#x42a;" horiz-adv-x="813" 
d="M780 221q0 -106 -63.5 -163.5t-179.5 -57.5h-315v604h-214v108h339v-272h190q117 0 180 -57t63 -162zM655 218q0 56 -33 88t-92 32h-183v-236h185q123 0 123 116z" />
    <glyph glyph-name="afii10045" unicode="&#x42b;" horiz-adv-x="896" 
d="M614 221q0 -106 -63.5 -163.5t-179.5 -57.5h-295v712h125v-272h170q117 0 180 -57t63 -162zM489 218q0 56 -33 88t-92 32h-163v-236h165q123 0 123 116zM698 712h125v-712h-125v712z" />
    <glyph glyph-name="afii10046" unicode="&#x42c;" horiz-adv-x="667" 
d="M634 221q0 -106 -63.5 -163.5t-179.5 -57.5h-315v712h125v-272h190q117 0 180 -57t63 -162zM509 218q0 56 -33 88t-92 32h-183v-236h185q123 0 123 116z" />
    <glyph glyph-name="afii10047" unicode="&#x42d;" horiz-adv-x="722" 
d="M680 356q0 -169 -91 -271t-242 -102q-124 0 -206 69.5t-100 186.5h126q34 -150 177 -150q96 0 148 65t60 163h-304v101h301q-14 89 -65.5 146.5t-140.5 57.5q-65 0 -111 -33t-62 -91h-125q21 112 103.5 171t192.5 59q105 0 183 -51.5t117 -135t39 -185.5z" />
    <glyph glyph-name="afii10048" unicode="&#x42e;" horiz-adv-x="1018" 
d="M653 729q142 0 234.5 -104t92.5 -269t-93 -269t-236 -104q-137 0 -227.5 93.5t-100.5 245.5h-125v-322h-125v712h125v-283h129q21 134 107.5 217t218.5 83zM651 624q-90 0 -146.5 -73t-56.5 -193q0 -123 57 -196.5t148 -73.5q89 0 145 74t56 195q0 122 -55.5 194.5
t-147.5 72.5z" />
    <glyph glyph-name="afii10049" unicode="&#x42f;" horiz-adv-x="685" 
d="M612 0h-125v294h-142l-202 -294h-156l219 306q-88 27 -121 80t-33 129q0 90 62 143.5t174 53.5h324v-712zM487 389v221h-186q-64 0 -94 -25.5t-30 -80.5q0 -115 122 -115h188z" />
    <glyph glyph-name="afii10065" unicode="&#x430;" 
d="M55 357q18 175 226 175q97 0 154.5 -38t57.5 -118v-262q0 -22 5.5 -30t21.5 -8q12 0 26 2v-80q-44 -11 -74 -11q-73 0 -84 62q-65 -62 -181 -62q-80 0 -127 41.5t-47 112.5q0 22 5 41t11.5 33t21 26t24 20t31 15t32 10.5t36.5 7.5t34.5 5.5t35.5 4.5q61 8 83 13.5
t30 16.5q7 8 7 37q0 78 -106 78q-56 0 -82 -21t-33 -71h-108zM383 259q-13 -7 -30 -12.5t-27.5 -7t-33 -4.5t-29.5 -4q-21 -3 -33 -5.5t-29.5 -8.5t-27 -14.5t-16.5 -23t-7 -34.5q0 -37 24.5 -57t68.5 -20q76 0 117 41q23 23 23 89v61z" />
    <glyph glyph-name="afii10066" unicode="&#x431;" horiz-adv-x="593" 
d="M556 252q0 -121 -68 -193.5t-181 -72.5q-174 0 -234 143q-26 60 -26 163q0 203 65 303q34 52 83 77.5t124 30.5q9 1 24.5 2t22 1.5t17 2t15 3t10.5 4t9 6.5t6 9h114q-3 -18 -8.5 -33t-11.5 -26t-17.5 -20t-19 -15t-23.5 -11t-25 -7.5t-29 -5t-29.5 -3.5t-33 -2.5
t-33.5 -2.5q-138 -11 -181 -194h3q33 53 77 79.5t116 26.5q100 0 167 -73t67 -192zM442 252q0 79 -38.5 127t-101.5 48t-101.5 -47.5t-38.5 -127.5t38.5 -128t101.5 -48t101.5 48t38.5 128z" />
    <glyph glyph-name="afii10067" unicode="&#x432;" 
d="M521 146q0 -70 -49.5 -108t-140.5 -38h-271v516h285q72 0 112.5 -33t40.5 -93q0 -41 -18 -66t-56 -43v-2q97 -25 97 -133zM331 228h-157v-142h157q77 0 77 70q0 34 -20 53t-57 19zM316 430h-142v-119h145q66 0 66 62q0 57 -69 57z" />
    <glyph glyph-name="afii10068" unicode="&#x433;" horiz-adv-x="426" 
d="M421 426h-247v-426h-114v516h361v-90z" />
    <glyph glyph-name="afii10069" unicode="&#x434;" horiz-adv-x="600" 
d="M590 -164h-108v164h-367v-164h-108v254h65q61 143 61 368v58h388v-426h69v-254zM409 90v338h-167v-35q0 -81 -17 -169.5t-36 -133.5h220z" />
    <glyph glyph-name="afii10070" unicode="&#x435;" 
d="M522 161q-19 -84 -82.5 -131t-151.5 -47q-117 0 -185.5 75.5t-68.5 193.5q0 121 70.5 200t179.5 79q113 0 179 -77.5t66 -211.5v-12h-381q2 -78 39 -120.5t103 -42.5q47 0 76.5 22.5t46.5 71.5h109zM415 306q-5 65 -40.5 102.5t-91.5 37.5t-90.5 -36t-42.5 -104h265z" />
    <glyph glyph-name="afii10072" unicode="&#x436;" horiz-adv-x="778" 
d="M787 0h-137l-158 224l-48 -54v-170h-110v170l-48 54l-158 -224h-137l222 296l-197 220h138l177 -218h3v218h110v-218h3l177 218h138l-197 -220z" />
    <glyph glyph-name="afii10073" unicode="&#x437;" horiz-adv-x="519" 
d="M482 153q0 -79 -65.5 -123t-154.5 -44q-110 0 -169.5 46.5t-63.5 128.5h115q12 -87 117 -87q49 0 78 20.5t29 56.5q0 76 -101 76h-64v84h46q103 0 103 68q0 65 -94 65q-82 0 -99 -77h-115q15 164 225 164q87 0 141.5 -34t54.5 -105q0 -42 -24.5 -72t-58.5 -37v-2
q41 -8 70.5 -40.5t29.5 -87.5z" />
    <glyph glyph-name="afii10074" unicode="&#x438;" horiz-adv-x="574" 
d="M204 0h-144v516h114v-376h3l193 376h144v-516h-114v376h-3z" />
    <glyph glyph-name="afii10075" unicode="&#x439;" horiz-adv-x="574" 
d="M451 729q-8 -72 -48 -106.5t-116 -34.5t-116 34.5t-48 106.5h58q19 -76 106 -76t106 76h58zM204 0h-144v516h114v-376h3l193 376h144v-516h-114v376h-3z" />
    <glyph glyph-name="afii10076" unicode="&#x43a;" horiz-adv-x="537" 
d="M542 0h-138l-162 231l-68 -71v-160h-114v516h114v-229l206 229h139l-201 -207z" />
    <glyph glyph-name="afii10077" unicode="&#x43b;" horiz-adv-x="574" 
d="M516 0h-114v426h-158l-7 -226q-3 -101 -43.5 -156.5t-110.5 -55.5q-43 0 -70 11v89q10 -5 41 -5q68 0 72 128l9 305h381v-516z" />
    <glyph glyph-name="afii10078" unicode="&#x43c;" horiz-adv-x="704" 
d="M170 0h-110v516h150l144 -410h2l139 410h150v-516h-110v343h-2l-123 -343h-115l-123 343h-2v-343z" />
    <glyph glyph-name="afii10079" unicode="&#x43d;" horiz-adv-x="574" 
d="M174 0h-114v516h114v-202h226v202h114v-516h-114v224h-226v-224z" />
    <glyph glyph-name="afii10080" unicode="&#x43e;" horiz-adv-x="593" 
d="M299 531q118 0 188 -74t70 -199q0 -126 -69.5 -200t-188.5 -74q-121 0 -192 74t-71 200q0 125 71.5 199t191.5 74zM297 441q-68 0 -107 -49t-39 -134q0 -87 39 -136t108 -49q67 0 105.5 49.5t38.5 136.5q0 85 -38.5 133.5t-106.5 48.5z" />
    <glyph glyph-name="afii10081" unicode="&#x43f;" horiz-adv-x="574" 
d="M174 0h-114v516h454v-516h-114v426h-226v-426z" />
    <glyph glyph-name="afii10082" unicode="&#x440;" horiz-adv-x="611" 
d="M169 516v-69q52 84 168 84q107 0 171 -75t64 -200q0 -122 -62.5 -195.5t-166.5 -73.5q-110 0 -168 81v-259h-113v707h107zM314 439q-67 0 -105 -48t-38 -133q0 -84 38.5 -132t106.5 -48q65 0 103 48t38 130q0 84 -38.5 133.5t-104.5 49.5z" />
    <glyph glyph-name="afii10083" unicode="&#x441;" 
d="M528 195q-12 -95 -76 -151.5t-161 -56.5q-116 0 -185 73.5t-69 192.5q0 128 69.5 203.5t187.5 75.5q99 0 159.5 -50t70.5 -139h-113q-10 49 -40 75t-76 26q-66 0 -104 -49.5t-38 -135.5t36.5 -134t101.5 -48q51 0 83.5 30.5t41.5 87.5h112z" />
    <glyph glyph-name="afii10084" unicode="&#x442;" horiz-adv-x="464" 
d="M459 426h-170v-426h-114v426h-170v90h454v-90z" />
    <glyph glyph-name="afii10085" unicode="&#x443;" horiz-adv-x="519" 
d="M515 516l-191 -506q-3 -7 -11 -29.5t-11 -30.5t-11.5 -28t-13.5 -28l-15 -24t-18.5 -23t-21 -17.5t-25.5 -15t-29.5 -8t-35.5 -3.5q-32 0 -79 6v96q36 -7 60 -7q12 0 22 3.5t18 12t14 16t11.5 21t8.5 21t8 23.5t6 20l-198 501h125l138 -380l130 380h119z" />
    <glyph glyph-name="afii10086" unicode="&#x444;" horiz-adv-x="826" 
d="M790 266q0 -77 -19.5 -137.5t-68.5 -101.5t-122 -41q-28 0 -60 14.5t-47 33.5h-3v-225h-114v225h-3q-15 -19 -47 -33.5t-60 -14.5q-73 0 -122 41t-68.5 101.5t-19.5 137.5q0 122 55 193.5t148 71.5q32 0 65.5 -16t48.5 -37h3v234h114v-234h3q15 21 48.5 37t65.5 16
q93 0 148 -71.5t55 -193.5zM676 264q0 179 -113 179q-30 0 -56.5 -14.5t-36.5 -46.5v-251q5 -24 29 -40.5t59 -16.5q63 0 90.5 54t27.5 136zM356 131v251q-10 32 -36.5 46.5t-56.5 14.5q-113 0 -113 -179q0 -82 27.5 -136t90.5 -54q35 0 59 16.5t29 40.5z" />
    <glyph glyph-name="afii10087" unicode="&#x445;" horiz-adv-x="537" 
d="M198 271l-179 245h138l108 -159l113 159h132l-175 -239l197 -277h-137l-131 190l-127 -190h-134z" />
    <glyph glyph-name="afii10088" unicode="&#x446;" horiz-adv-x="590" 
d="M514 90h69v-254h-110v164h-413v516h114v-426h226v426h114v-426z" />
    <glyph glyph-name="afii10089" unicode="&#x447;" horiz-adv-x="537" 
d="M367 219q-86 -27 -168 -27q-78 0 -120.5 39.5t-42.5 114.5v170h114v-130q0 -98 94 -98q64 0 123 25v203h114v-516h-114v219z" />
    <glyph glyph-name="afii10090" unicode="&#x448;" horiz-adv-x="814" 
d="M60 0v516h114v-426h176v426h114v-426h176v426h114v-516h-694z" />
    <glyph glyph-name="afii10091" unicode="&#x449;" horiz-adv-x="830" 
d="M60 0v516h114v-426h176v426h114v-426h176v426h114v-426h69v-254h-110v164h-653z" />
    <glyph glyph-name="afii10092" unicode="&#x44a;" horiz-adv-x="630" 
d="M600 165q0 -77 -46 -121t-129 -44h-272v426h-147v90h261v-187h157q84 0 130 -43.5t46 -120.5zM486 163q0 35 -20 56t-56 21h-143v-151h145q37 0 55.5 20.5t18.5 53.5z" />
    <glyph glyph-name="afii10093" unicode="&#x44b;" horiz-adv-x="722" 
d="M553 516h114v-516h-114v516zM482 165q0 -77 -46 -121t-129 -44h-252v516h114v-187h137q84 0 130 -43.5t46 -120.5zM368 163q0 35 -20 56t-56 21h-123v-151h125q37 0 55.5 20.5t18.5 53.5z" />
    <glyph glyph-name="afii10094" unicode="&#x44c;" horiz-adv-x="537" 
d="M507 165q0 -77 -46 -121t-129 -44h-272v516h114v-187h157q84 0 130 -43.5t46 -120.5zM393 163q0 35 -20 56t-56 21h-143v-151h145q37 0 55.5 20.5t18.5 53.5z" />
    <glyph glyph-name="afii10095" unicode="&#x44d;" 
d="M520 253q0 -119 -69 -192.5t-185 -73.5q-91 0 -154 51t-80 138h113q25 -99 121 -99q58 0 93.5 39t42.5 109h-192v80h191q-10 66 -46 102.5t-93 36.5q-88 0 -113 -87h-114q14 83 73.5 129t154.5 46q118 0 187.5 -75.5t69.5 -203.5z" />
    <glyph glyph-name="afii10096" unicode="&#x44e;" horiz-adv-x="802" 
d="M518 531q114 0 181 -74t67 -199q0 -126 -67 -200t-181 -74q-108 0 -175.5 65t-75.5 177h-93v-226h-114v516h114v-204h95q14 102 80.5 160.5t168.5 58.5zM516 441q-64 0 -100 -49t-36 -134q0 -87 36 -136t101 -49q63 0 98.5 49.5t35.5 136.5q0 85 -35.5 133.5t-99.5 48.5z
" />
    <glyph glyph-name="afii10097" unicode="&#x44f;" 
d="M496 0h-114v208h-97l-159 -208h-134l172 221q-63 20 -87 58.5t-24 93.5q0 68 44 105.5t126 37.5h273v-516zM382 291v138h-138q-77 0 -77 -66q0 -72 76 -72h139z" />
    <glyph glyph-name="afii10071" unicode="&#x451;" 
d="M433 712v-109h-111v109h111zM234 712v-109h-111v109h111zM522 161q-19 -84 -82.5 -131t-151.5 -47q-117 0 -185.5 75.5t-68.5 193.5q0 121 70.5 200t179.5 79q113 0 179 -77.5t66 -211.5v-12h-381q2 -78 39 -120.5t103 -42.5q47 0 76.5 22.5t46.5 71.5h109zM415 306
q-5 65 -40.5 102.5t-91.5 37.5t-90.5 -36t-42.5 -104h265z" />
    <glyph glyph-name="afii10099" unicode="&#x452;" horiz-adv-x="574" 
d="M521 103q0 -122 -86 -205.5t-208 -88.5v99q83 10 131.5 63t48.5 131v63q0 116 -99 116q-56 0 -91.5 -38t-35.5 -98v-145h-114v431h-52v85h52v196h114v-196h227v-85h-227v-142h2q54 82 160 82q83 0 130.5 -47t47.5 -129v-92z" />
    <glyph glyph-name="afii10100" unicode="&#x453;" horiz-adv-x="426" 
d="M421 426h-247v-426h-114v516h361v-90zM354 727l-134 -143h-82l85 143h131z" />
    <glyph glyph-name="afii10101" unicode="&#x454;" 
d="M525 176q-17 -87 -80 -138t-154 -51q-116 0 -185 73.5t-69 192.5q0 128 69.5 203.5t187.5 75.5q95 0 154.5 -46t73.5 -129h-114q-25 87 -113 87q-57 0 -93 -36.5t-46 -102.5h196v-80h-197q7 -70 42.5 -109t93.5 -39q96 0 121 99h113z" />
    <glyph glyph-name="afii10102" unicode="&#x455;" horiz-adv-x="519" 
d="M469 366h-109q-10 82 -112 82q-44 0 -68 -16t-24 -44q0 -9 1.5 -16t6 -12.5t8 -9.5t12.5 -8t14.5 -6.5t18.5 -6t20.5 -5.5t24.5 -5.5t26 -5.5q39 -9 56.5 -13.5t51 -18t49.5 -28t29.5 -40t13.5 -58.5q0 -78 -61 -124t-164 -46q-110 0 -169 46t-63 134h109q9 -97 125 -97
q50 0 80.5 20.5t30.5 54.5q0 17 -7.5 29t-24.5 20.5t-32.5 13t-41.5 10.5l-6 1.5t-5 1t-6 1.5q-110 27 -140 42q-71 34 -71 113q0 73 56 114.5t155 41.5q95 0 155.5 -41t60.5 -124z" />
    <glyph glyph-name="afii10103" unicode="&#x456;" horiz-adv-x="241" 
d="M177 715v-112h-114v112h114zM177 516v-516h-114v516h114z" />
    <glyph glyph-name="afii10104" unicode="&#x457;" horiz-adv-x="241" 
d="M177 516v-516h-114v516h114zM276 712v-109h-112v109h112zM77 712v-109h-112v109h112z" />
    <glyph glyph-name="afii10105" unicode="&#x458;" horiz-adv-x="241" 
d="M181 516v-543q0 -91 -33.5 -131t-118.5 -40q-15 0 -48 3v93q26 -2 27 -2q32 0 45.5 9t13.5 38v573h114zM181 716v-113h-114v113h114z" />
    <glyph glyph-name="afii10106" unicode="&#x459;" horiz-adv-x="817" 
d="M787 160q0 -77 -45.5 -118.5t-129.5 -41.5h-236v426h-135l-7 -226q-3 -101 -43.5 -156.5t-110.5 -55.5q-42 0 -70 11v89q10 -5 41 -5q68 0 72 128l9 305h358v-197h121q85 0 130.5 -41.5t45.5 -117.5zM673 158q0 34 -20 53t-56 19h-107v-141h109q74 0 74 69z" />
    <glyph glyph-name="afii10107" unicode="&#x45a;" horiz-adv-x="817" 
d="M787 160q0 -77 -45.5 -118.5t-129.5 -41.5h-242v230h-196v-230h-114v516h114v-196h196v196h114v-197h127q85 0 130.5 -41.5t45.5 -117.5zM673 158q0 34 -20 53t-56 19h-113v-141h115q74 0 74 69z" />
    <glyph glyph-name="afii10108" unicode="&#x45b;" horiz-adv-x="574" 
d="M521 0h-114v165q0 116 -99 116q-56 0 -91.5 -38t-35.5 -98v-145h-114v431h-52v85h52v196h114v-196h227v-85h-227v-142h2q54 82 160 82q83 0 130.5 -47t47.5 -129v-195z" />
    <glyph glyph-name="afii10109" unicode="&#x45c;" horiz-adv-x="537" 
d="M417 727l-134 -143h-82l85 143h131zM542 0h-138l-162 231l-68 -71v-160h-114v516h114v-229l206 229h139l-201 -207z" />
    <glyph glyph-name="afii10110" unicode="&#x45e;" horiz-adv-x="519" 
d="M429 729q-8 -72 -48 -106.5t-116 -34.5t-116 34.5t-48 106.5h58q19 -76 106 -76t106 76h58zM515 516l-191 -506q-3 -8 -11 -29.5t-11.5 -30t-11.5 -28t-13 -28.5t-15 -24t-18.5 -22.5t-21 -18t-25.5 -15t-29.5 -8t-35.5 -3.5q-32 0 -79 6v96q36 -7 60 -7q12 0 22 3.5
t18 12t14 16t11.5 21t8.5 21t8 23.5t6 20l-198 501h125l138 -380l130 380h119z" />
    <glyph glyph-name="afii10193" unicode="&#x45f;" horiz-adv-x="574" 
d="M400 90v426h114v-516h-171v-164h-114v164h-169v516h114v-426h226z" />
    <glyph glyph-name="afii10050" unicode="&#x490;" horiz-adv-x="563" 
d="M559 869v-265h-358v-604h-125v712h358v157h125z" />
    <glyph glyph-name="afii10098" unicode="&#x491;" horiz-adv-x="426" 
d="M423 670v-244h-249v-426h-114v516h249v154h114z" />
    <glyph glyph-name="endash" unicode="&#x2013;" horiz-adv-x="500" 
d="M500 327v-104h-500v104h500z" />
    <glyph glyph-name="emdash" unicode="&#x2014;" horiz-adv-x="1000" 
d="M1000 327v-104h-1000v104h1000z" />
    <glyph glyph-name="quoteleft" unicode="&#x2018;" horiz-adv-x="278" 
d="M67 437v110q0 154 137 178v-59q-62 -20 -65 -97h65v-132h-137z" />
    <glyph glyph-name="quoteright" unicode="&#x2019;" horiz-adv-x="278" 
d="M210 712v-110q0 -154 -137 -178v59q62 20 65 97h-65v132h137z" />
    <glyph glyph-name="quotesinglbase" unicode="&#x201a;" horiz-adv-x="278" 
d="M202 128v-100q0 -155 -125 -183v56q31 13 45.5 36t16.5 63h-62v128h125z" />
    <glyph glyph-name="quotedblleft" unicode="&#x201c;" horiz-adv-x="444" 
d="M59 441v123q0 63 37 106.5t89 53.5v-57q-61 -23 -61 -98h61v-128h-126zM256 441v123q0 63 37 106.5t89 53.5v-57q-61 -23 -61 -98h61v-128h-126z" />
    <glyph glyph-name="quotedblright" unicode="&#x201d;" horiz-adv-x="444" 
d="M383 712v-123q0 -63 -37 -106.5t-89 -53.5v57q61 23 61 98h-61v128h126zM186 712v-123q0 -63 -37 -106.5t-89 -53.5v57q61 23 61 98h-61v128h126z" />
    <glyph glyph-name="quotedblbase" unicode="&#x201e;" horiz-adv-x="444" 
d="M384 128v-123q0 -63 -37 -106.5t-89 -53.5v57q61 23 61 98h-61v128h126zM187 128v-123q0 -63 -37 -106.5t-89 -53.5v57q61 23 61 98h-61v128h126z" />
    <glyph glyph-name="dagger" unicode="&#x2020;" 
d="M523 511v-97h-191v-574h-110v574h-189v97h189v201h110v-201h191z" />
    <glyph glyph-name="daggerdbl" unicode="&#x2021;" 
d="M523 518v-96h-192v-292h192v-96h-192v-193h-108v193h-190v96h190v292h-190v96h190v194h108v-194h192z" />
    <glyph glyph-name="bullet" unicode="&#x2022;" horiz-adv-x="500" 
d="M250 534q74 0 126 -52t52 -126t-52 -126t-126 -52t-126 52t-52 126t52 126t126 52z" />
    <glyph glyph-name="ellipsis" unicode="&#x2026;" horiz-adv-x="1000" 
d="M108 0v130h117v-130h-117zM441 0v130h117v-130h-117zM774 0v130h118v-130h-118z" />
    <glyph glyph-name="perthousand" unicode="&#x2030;" horiz-adv-x="1148" 
d="M657 725l-453 -756h-74l455 756h72zM579 328q69 0 106.5 -43t37.5 -122q0 -85 -37 -130t-107 -45q-147 0 -147 168q0 85 37.5 128.5t109.5 43.5zM924 329q70 0 107.5 -43t37.5 -124q0 -84 -37.5 -129t-107.5 -45q-146 0 -146 168q0 84 37.5 128.5t108.5 44.5zM225 707
q71 0 108 -43.5t37 -125.5t-38.5 -127t-108.5 -45t-107 43.5t-37 125.5q0 83 37.5 127.5t108.5 44.5zM578 269q-65 0 -65 -113q0 -56 16 -82t50 -26q62 0 62 113q0 108 -63 108zM923 269q-65 0 -65 -113q0 -108 66 -108q63 0 63 112q0 109 -64 109zM224 647q-64 0 -64 -115
q0 -105 64 -105t64 110t-64 110z" />
    <glyph glyph-name="guilsinglleft" unicode="&#x2039;" horiz-adv-x="259" 
d="M197 440v-103l-94 -72l94 -74v-104l-154 123v109z" />
    <glyph glyph-name="guilsinglright" unicode="&#x203a;" horiz-adv-x="259" 
d="M61 441l154 -122v-111l-154 -119v102l95 72l-95 74v104z" />
    <glyph glyph-name="afii61352" unicode="&#x2116;" horiz-adv-x="1068" 
d="M1004 279q0 -76 -42 -117t-121 -41q-78 0 -120.5 40.5t-42.5 114.5t43 115t120 41q76 0 119.5 -41t43.5 -112zM620 0h-132l-298 507v-507h-119v696h132l298 -508v508h119v-696zM917 276q0 40 -22 65.5t-54 25.5q-33 0 -54.5 -25t-21.5 -66t21.5 -65.5t54.5 -24.5
q32 0 54 25t22 65zM1004 0h-325v85h325v-85z" />
    <glyph glyph-name="trademark" unicode="&#x2122;" horiz-adv-x="990" 
d="M218 356v301h-115v55h299v-55h-114v-301h-70zM460 356v356h105l90 -251l89 251h103v-356h-63v293l-103 -293h-54l-103 293v-293h-64z" />
    <glyph glyph-name="Delta" unicode="&#x2206;" horiz-adv-x="682" 
d="M387 696l285 -696h-662l273 696h104zM147 91h383l-196 493z" />
    <glyph glyph-name="radical" unicode="&#x221a;" horiz-adv-x="600" 
d="M559 786l-212 -1000h-95l-156 322l-49 -23l-37 80l136 63l137 -289l173 847h103z" />
    <glyph glyph-name="infinity" unicode="&#x221e;" horiz-adv-x="796" 
d="M399 312q32 37 54.5 58t60.5 40.5t77 19.5q71 0 116 -47.5t45 -123.5q0 -77 -44.5 -125.5t-116.5 -48.5q-55 0 -100 29.5t-92 81.5q-7 -6 -33 -31t-36.5 -32.5t-32.5 -22t-43 -19.5t-47 -5q-72 0 -117.5 47.5t-45.5 123.5t45 124t115 48q58 0 101 -30t94 -87zM451 255
q79 -83 141 -83q35 0 57 23.5t22 60.5q0 39 -22.5 63t-58.5 24q-56 0 -139 -88zM346 255q-88 87 -143 87q-33 0 -55 -24.5t-22 -61.5q0 -38 22 -60.5t59 -22.5q26 0 53.5 14.5t44.5 29t41 38.5z" />
    <glyph glyph-name="approxequal" unicode="&#x2248;" horiz-adv-x="600" 
d="M567 439q-8 -79 -45 -121t-98 -42q-33 0 -134 32q-7 3 -29 10.5t-36 12.5t-31.5 9.5t-28.5 4.5q-26 0 -44.5 -19.5t-22.5 -51.5h-65q7 70 42 117t100 47q30 0 135 -34q10 -3 27.5 -9t25 -8.5l19.5 -6.5t19.5 -5.5t17 -2.5t18.5 -1q53 0 65 68h65zM567 240
q-8 -79 -45 -121t-98 -42q-33 0 -134 32q-7 3 -29 10.5t-36 12.5t-31.5 9.5t-28.5 4.5q-26 0 -44.5 -19.5t-22.5 -51.5h-65q7 70 42 117t100 47q30 0 135 -34q10 -3 27.5 -9t25 -8.5l19.5 -6.5t19.5 -5.5t17 -2.5t18.5 -1q53 0 65 68h65z" />
    <glyph glyph-name="notequal" unicode="&#x2260;" horiz-adv-x="600" 
d="M216 198l61 119h-236v95h285l77 152l84 -43l-56 -109h127v-95h-176l-61 -119h237v-96h-286l-77 -151l-84 43l56 108h-126v96h175z" />
    <glyph glyph-name="lessequal" unicode="&#x2264;" horiz-adv-x="600" 
d="M38 271v97l517 181v-101l-386 -128l386 -123v-101zM38 62h517v-96h-517v96z" />
    <glyph glyph-name="greaterequal" unicode="&#x2265;" horiz-adv-x="600" 
d="M562 271l-517 -175v101l386 123l-386 128v101l517 -181v-97zM562 62v-96h-517v96h517z" />
    <glyph glyph-name="hyphenminus" unicode="&#xe000;" horiz-adv-x="389" 
d="M341 328v-106h-293v106h293z" />
    <glyph glyph-name="nbspace" unicode="&#xe001;" horiz-adv-x="278" 
 />
    </font>
</defs>
</svg>
